<svg width="28" height="28" viewBox="0 0 28 28" fill="none" xmlns="http://www.w3.org/2000/svg">
<path d="M10.5002 25.6666C11.1445 25.6666 11.6668 25.1443 11.6668 24.5C11.6668 23.8556 11.1445 23.3333 10.5002 23.3333C9.85583 23.3333 9.3335 23.8556 9.3335 24.5C9.3335 25.1443 9.85583 25.6666 10.5002 25.6666Z" stroke="#EB0225" stroke-width="2" stroke-linecap="round" stroke-linejoin="round"/>
<path d="M23.3332 25.6666C23.9775 25.6666 24.4998 25.1443 24.4998 24.5C24.4998 23.8556 23.9775 23.3333 23.3332 23.3333C22.6888 23.3333 22.1665 23.8556 22.1665 24.5C22.1665 25.1443 22.6888 25.6666 23.3332 25.6666Z" stroke="#EB0225" stroke-width="2" stroke-linecap="round" stroke-linejoin="round"/>
<path d="M1.1665 1.16669H5.83317L8.95984 16.7884C9.06652 17.3255 9.35873 17.808 9.78531 18.1514C10.2119 18.4948 10.7457 18.6772 11.2932 18.6667H22.6332C23.1807 18.6772 23.7145 18.4948 24.141 18.1514C24.5676 17.808 24.8598 17.3255 24.9665 16.7884L26.8332 7.00002H6.99984" stroke="#EB0225" stroke-width="2" stroke-linecap="round" stroke-linejoin="round"/>
</svg>
