<svg width="15" height="15" viewBox="0 0 15 15" fill="none" xmlns="http://www.w3.org/2000/svg">
<path fill-rule="evenodd" clip-rule="evenodd" d="M7.5 0C5.463 0 5.208 0.00899996 4.40775 0.045C3.60975 0.08175 3.0645 0.2085 2.5875 0.39375C2.08687 0.581884 1.63331 0.876999 1.2585 1.2585C0.877017 1.63333 0.581905 2.08688 0.39375 2.5875C0.2085 3.0645 0.08175 3.60975 0.045 4.40775C0.00824996 5.208 0 5.463 0 7.5C0 9.537 0.00824996 9.792 0.045 10.5922C0.08175 11.3902 0.2085 11.9355 0.39375 12.4125C0.581927 12.9131 0.877036 13.3667 1.2585 13.7415C1.63335 14.123 2.08689 14.4181 2.5875 14.6063C3.0645 14.7915 3.60975 14.9183 4.40775 14.955C5.208 14.991 5.463 15 7.5 15C9.537 15 9.792 14.991 10.5922 14.955C11.3902 14.9183 11.9355 14.7915 12.4125 14.6063C12.9131 14.4181 13.3667 14.123 13.7415 13.7415C14.123 13.3667 14.4181 12.9131 14.6063 12.4125C14.7915 11.9355 14.9183 11.3902 14.955 10.5922C14.991 9.792 15 9.537 15 7.5C15 5.463 14.991 5.208 14.955 4.40775C14.9183 3.60975 14.7915 3.0645 14.6063 2.5875C14.4181 2.08688 14.123 1.63333 13.7415 1.2585C13.3667 0.876999 12.9131 0.581884 12.4125 0.39375C11.9355 0.2085 11.3902 0.08175 10.5922 0.045C9.792 0.00899996 9.537 0 7.5 0ZM7.5 1.3515C9.5025 1.3515 9.7395 1.359 10.53 1.395C11.262 1.42875 11.6588 1.55025 11.9235 1.653C12.273 1.7895 12.5235 1.95225 12.786 2.214C13.0485 2.4765 13.2105 2.727 13.347 3.0765C13.449 3.34125 13.572 3.738 13.605 4.46925C13.641 5.2605 13.6485 5.49675 13.6485 7.5C13.6485 9.5025 13.641 9.7395 13.605 10.53C13.5712 11.262 13.449 11.6588 13.347 11.9235C13.2268 12.2493 13.0351 12.544 12.786 12.786C12.5235 13.0485 12.273 13.2105 11.9235 13.347C11.6588 13.449 11.262 13.572 10.5308 13.605C9.74025 13.641 9.50325 13.6485 7.5 13.6485C5.4975 13.6485 5.25975 13.641 4.47 13.605C3.738 13.5712 3.34125 13.449 3.0765 13.347C2.75069 13.2268 2.45596 13.0351 2.214 12.786C1.96489 12.544 1.77319 12.2493 1.653 11.9235C1.55025 11.6588 1.428 11.262 1.395 10.5308C1.359 9.7395 1.3515 9.50325 1.3515 7.5C1.3515 5.4975 1.359 5.2605 1.395 4.47C1.42875 3.738 1.55025 3.34125 1.653 3.0765C1.7895 2.727 1.95225 2.4765 2.214 2.214C2.4765 1.9515 2.727 1.7895 3.0765 1.653C3.34125 1.55025 3.738 1.428 4.46925 1.395C5.2605 1.359 5.49675 1.3515 7.5 1.3515ZM7.5 9.99975C6.83703 9.99975 6.2012 9.73638 5.73241 9.26759C5.26362 8.7988 5.00025 8.16298 5.00025 7.5C5.00025 6.83703 5.26362 6.2012 5.73241 5.73241C6.2012 5.26362 6.83703 5.00025 7.5 5.00025C8.16298 5.00025 8.7988 5.26362 9.26759 5.73241C9.73638 6.2012 9.99975 6.83703 9.99975 7.5C9.99975 8.16298 9.73638 8.7988 9.26759 9.26759C8.7988 9.73638 8.16298 9.99975 7.5 9.99975ZM7.5 3.64875C6.99425 3.64875 6.49345 3.74837 6.02619 3.94191C5.55894 4.13545 5.13438 4.41913 4.77675 4.77676C4.41913 5.13438 4.13545 5.55894 3.94191 6.02619C3.74837 6.49345 3.64875 6.99425 3.64875 7.5C3.64875 8.00575 3.74837 8.50655 3.94191 8.97381C4.13545 9.44106 4.41913 9.86562 4.77675 10.2232C5.13438 10.5809 5.55894 10.8645 6.02619 11.0581C6.49345 11.2516 6.99425 11.3513 7.5 11.3512C8.52141 11.3512 9.501 10.9455 10.2232 10.2232C10.9455 9.501 11.3512 8.52141 11.3512 7.5C11.3512 6.47859 10.9455 5.499 10.2232 4.77676C9.501 4.05451 8.52141 3.64875 7.5 3.64875ZM12.4035 3.4965C12.4035 3.61469 12.3802 3.73172 12.335 3.84092C12.2898 3.95011 12.2235 4.04932 12.1399 4.1329C12.0563 4.21647 11.9571 4.28276 11.8479 4.32799C11.7387 4.37322 11.6217 4.3965 11.5035 4.3965C11.3853 4.3965 11.2683 4.37322 11.1591 4.32799C11.0499 4.28276 10.9507 4.21647 10.8671 4.1329C10.7835 4.04932 10.7172 3.95011 10.672 3.84092C10.6268 3.73172 10.6035 3.61469 10.6035 3.4965C10.6035 3.25781 10.6983 3.02889 10.8671 2.8601C11.0359 2.69132 11.2648 2.5965 11.5035 2.5965C11.7422 2.5965 11.9711 2.69132 12.1399 2.8601C12.3087 3.02889 12.4035 3.25781 12.4035 3.4965Z" fill="#FAFAF8"/>
</svg>
