<svg width="17" height="17" viewBox="0 0 17 17" fill="none" xmlns="http://www.w3.org/2000/svg">
<path d="M3.52981 5.0979C4.38576 5.0979 5.07965 4.40401 5.07965 3.54806C5.07965 2.69211 4.38576 1.99823 3.52981 1.99823C2.67386 1.99823 1.97998 2.69211 1.97998 3.54806C1.97998 4.40401 2.67386 5.0979 3.52981 5.0979Z" fill="#FAFAF8"/>
<path d="M6.54297 6.27231V14.8708H9.21267V10.6186C9.21267 9.49665 9.42376 8.41006 10.8149 8.41006C12.187 8.41006 12.204 9.69286 12.204 10.6895V14.8715H14.8751V10.1561C14.8751 7.83986 14.3764 6.05981 11.6692 6.05981C10.3694 6.05981 9.49813 6.77311 9.14184 7.44815H9.10572V6.27231H6.54297ZM2.19238 6.27231H4.86634V14.8708H2.19238V6.27231Z" fill="#FAFAF8"/>
</svg>
