<svg width="148" height="45" viewBox="0 0 148 45" fill="none" xmlns="http://www.w3.org/2000/svg">
<g clip-path="url(#clip0)">
<path d="M51.1223 14.5675L49.8347 21.957H57.2522L57.0003 23.5244H49.5548L48.2392 31.0259H56.4965L56.2166 32.5934H46L49.4428 13H59.6874L59.3795 14.5675H51.1223ZM60.525 24.952C60.8049 23.3658 61.3647 21.985 62.2044 20.8094C63.063 19.6151 64.1078 18.7007 65.3394 18.0663C66.571 17.4132 67.9054 17.0866 69.342 17.0866C71.2268 17.0866 72.6918 17.5531 73.7365 18.4861C74.8002 19.4192 75.3694 20.6881 75.444 22.2929H73.3447C73.2887 21.1919 72.8783 20.3335 72.1131 19.7177C71.3668 19.0833 70.3497 18.7661 69.0621 18.7661C67.4761 18.7661 66.0766 19.3072 64.8635 20.3895C63.6694 21.4531 62.8951 22.974 62.5403 24.952C62.4472 25.4185 62.4004 25.9503 62.4004 26.5474C62.4004 28.0403 62.8017 29.1879 63.604 29.9903C64.4251 30.774 65.5073 31.1659 66.8509 31.1659C68.1573 31.1659 69.2955 30.858 70.2657 30.2422C71.2363 29.6077 71.9546 28.7307 72.421 27.6111H74.5203C73.8859 29.1785 72.8688 30.4381 71.4693 31.3898C70.0698 32.3415 68.4372 32.8173 66.571 32.8173C64.6865 32.8173 63.175 32.2761 62.0365 31.1939C60.9169 30.1116 60.3571 28.6281 60.3571 26.7434C60.3571 26.1649 60.413 25.5678 60.525 24.952ZM83.9611 32.8173C82.6921 32.8173 81.5725 32.5654 80.6023 32.0616C79.632 31.5391 78.8763 30.8113 78.335 29.8783C77.8127 28.9266 77.5513 27.8163 77.5513 26.5474C77.5513 24.8307 77.9432 23.2539 78.7269 21.817C79.5106 20.3615 80.6023 19.2139 82.0018 18.3742C83.4013 17.5158 84.9593 17.0866 86.6762 17.0866C87.9452 17.0866 89.0649 17.3479 90.0351 17.8704C91.0053 18.3742 91.7611 19.1019 92.3023 20.0536C92.8436 20.9866 93.114 22.0876 93.114 23.3565C93.114 25.0919 92.7127 26.678 91.9104 28.1149C91.1082 29.5518 90.0071 30.6994 88.6076 31.5577C87.2266 32.3974 85.678 32.8173 83.9611 32.8173ZM84.1851 31.1659C85.5101 31.1659 86.6948 30.8113 87.7399 30.1022C88.8035 29.3931 89.6247 28.4508 90.203 27.2752C90.8003 26.0996 91.0987 24.8307 91.0987 23.4685C91.0987 21.9383 90.6509 20.772 89.7552 19.9696C88.878 19.1673 87.7584 18.7661 86.3963 18.7661C85.0713 18.7661 83.8866 19.1206 82.8415 19.8297C81.8153 20.5388 81.0127 21.4811 80.4343 22.6567C79.856 23.8323 79.5666 25.1013 79.5666 26.4635C79.5666 27.9749 80.005 29.1412 80.8822 29.9623C81.7593 30.7647 82.8601 31.1659 84.1851 31.1659ZM116.167 17.0306C117.697 17.0306 118.92 17.4505 119.834 18.2902C120.767 19.1299 121.233 20.3615 121.233 21.985C121.233 22.4888 121.177 23.0393 121.065 23.6364L119.47 32.5934H117.539L119.106 23.8603C119.199 23.3005 119.246 22.834 119.246 22.4608C119.246 21.2479 118.92 20.3242 118.266 19.6897C117.613 19.0553 116.689 18.7381 115.495 18.7381C114.17 18.7381 113.004 19.1579 111.996 19.9976C111.007 20.8374 110.317 22.0503 109.925 23.6364L108.302 32.5934H106.37L107.938 23.8603C108.031 23.3005 108.078 22.834 108.078 22.4608C108.078 21.2479 107.751 20.3242 107.098 19.6897C106.445 19.0553 105.531 18.7381 104.355 18.7381C102.937 18.7381 101.714 19.2046 100.688 20.1376C99.6621 21.0519 98.9809 22.3768 98.645 24.1122L97.1615 32.5934H95.2021L97.8892 17.3105H99.8486L99.3727 19.9696C100.007 19.018 100.819 18.2902 101.808 17.7864C102.816 17.2826 103.879 17.0306 104.999 17.0306C106.324 17.0306 107.425 17.3479 108.302 17.9823C109.179 18.6168 109.729 19.5498 109.953 20.7814C110.569 19.5684 111.437 18.6447 112.556 18.0103C113.676 17.3572 114.879 17.0306 116.167 17.0306Z" fill="black"/>
<path d="M136.224 17.6577C136.019 18.8706 135.524 19.8596 134.74 20.6247C133.957 21.3711 133.024 21.8936 131.941 22.1921C132.875 22.3601 133.63 22.8173 134.209 23.5637C134.806 24.2914 135.104 25.1685 135.104 26.1948C135.104 26.456 135.076 26.7452 135.02 27.0625C134.852 28.0515 134.451 28.9472 133.817 29.7496C133.182 30.5333 132.343 31.1584 131.298 31.6249C130.271 32.0728 129.096 32.2967 127.771 32.2967H120.997L124.44 12.7313H131.046C132.781 12.7313 134.087 13.0952 134.964 13.823C135.86 14.5507 136.308 15.5117 136.308 16.706C136.308 17.0045 136.28 17.3218 136.224 17.6577ZM134.209 17.8536C134.246 17.6857 134.265 17.4431 134.265 17.1258C134.265 16.2488 133.957 15.5584 133.341 15.0545C132.725 14.5507 131.811 14.2988 130.598 14.2988H126.119L124.888 21.4084H129.45C130.756 21.4084 131.82 21.0912 132.641 20.4567C133.481 19.8223 134.003 18.9546 134.209 17.8536ZM133.089 26.8666C133.145 26.5866 133.173 26.3254 133.173 26.0828C133.173 25.1311 132.819 24.3847 132.109 23.8436C131.4 23.2838 130.42 23.0039 129.17 23.0039H124.58L123.236 30.7013H127.911C129.329 30.7013 130.495 30.3654 131.41 29.6936C132.324 29.0032 132.884 28.0608 133.089 26.8666ZM141.813 20.0648C142.429 19.0012 143.231 18.1801 144.22 17.6017C145.209 17.0232 146.357 16.734 147.663 16.734L147.299 18.7773H146.739C145.396 18.7773 144.239 19.1225 143.268 19.8129C142.298 20.5034 141.626 21.6417 141.253 23.2278L139.658 32.2967H137.698L140.385 17.0139H142.345L141.813 20.0648Z" fill="#DE0425"/>
<path d="M0 0.107544H35.3381C25.8013 2.59377 9.68088 10.1464 11.3563 22.214C16.0719 31.5647 18.6859 37.1345 13.4927 28.121C12.2971 26.0458 11.6148 24.0762 11.3563 22.214C7.95061 15.4608 3.44879 6.73567 0 0.107544Z" fill="url(#paint0_linear)"/>
<path d="M35.3381 44.7693H0C9.53673 42.283 25.6572 34.7304 23.9818 22.6628C19.2662 13.3121 16.6522 7.74235 21.8454 16.7558C23.041 18.8309 23.7232 20.8006 23.9818 22.6628C27.3875 29.4159 31.8893 38.1411 35.3381 44.7693Z" fill="url(#paint1_linear)"/>
</g>
<defs>
<linearGradient id="paint0_linear" x1="17.669" y1="0.107544" x2="17.669" y2="32.6901" gradientUnits="userSpaceOnUse">
<stop stop-color="#EB0225"/>
<stop offset="1" stop-color="#990C22"/>
</linearGradient>
<linearGradient id="paint1_linear" x1="17.669" y1="44.7693" x2="17.669" y2="12.1867" gradientUnits="userSpaceOnUse">
<stop stop-color="#EB0225"/>
<stop offset="1" stop-color="#990C22"/>
</linearGradient>
<clipPath id="clip0">
<rect width="148" height="44.7849" fill="white" transform="translate(0 0.107544)"/>
</clipPath>
</defs>
</svg>
