<svg width="22" height="17" viewBox="0 0 22 17" fill="none" xmlns="http://www.w3.org/2000/svg">
<path d="M20.625 0H1.375C1.01033 0 0.660591 0.149255 0.402728 0.414932C0.144866 0.680609 0 1.04094 0 1.41667V15.5833C0 15.9591 0.144866 16.3194 0.402728 16.5851C0.660591 16.8507 1.01033 17 1.375 17H20.625C20.9897 17 21.3394 16.8507 21.5973 16.5851C21.8551 16.3194 22 15.9591 22 15.5833V1.41667C22 1.04094 21.8551 0.680609 21.5973 0.414932C21.3394 0.149255 20.9897 0 20.625 0ZM19.5662 15.5833H2.51625L7.32875 10.455L6.33875 9.47042L1.375 14.7617V2.49333L9.92063 11.2554C10.1782 11.5193 10.5267 11.6674 10.89 11.6674C11.2533 11.6674 11.6018 11.5193 11.8594 11.2554L20.625 2.27375V14.6696L15.565 9.45625L14.5956 10.455L19.5662 15.5833ZM2.27562 1.41667H19.5112L10.89 10.2496L2.27562 1.41667Z" fill="#FAFAF8"/>
</svg>
