<svg width="36" height="35" viewBox="0 0 36 35" fill="none" xmlns="http://www.w3.org/2000/svg">
<path d="M7.7915 24.7917H6.33317C5.55962 24.7917 4.81776 24.4844 4.27078 23.9374C3.72379 23.3904 3.4165 22.6485 3.4165 21.875V7.29167C3.4165 6.51812 3.72379 5.77625 4.27078 5.22927C4.81776 4.68229 5.55962 4.375 6.33317 4.375H29.6665C30.4401 4.375 31.1819 4.68229 31.7289 5.22927C32.2759 5.77625 32.5832 6.51812 32.5832 7.29167V21.875C32.5832 22.6485 32.2759 23.3904 31.7289 23.9374C31.1819 24.4844 30.4401 24.7917 29.6665 24.7917H28.2082" stroke="#F71B3D" stroke-width="2" stroke-linecap="round" stroke-linejoin="round"/>
<path d="M18.0002 21.875L25.2918 30.625H10.7085L18.0002 21.875Z" stroke="#F71B3D" stroke-width="2" stroke-linecap="round" stroke-linejoin="round"/>
</svg>
