<svg width="16" height="20" viewBox="0 0 16 20" fill="none" xmlns="http://www.w3.org/2000/svg">
<path d="M14.8882 14.2495V16.9136C14.889 17.1609 14.8489 17.4057 14.7703 17.6323C14.6918 17.8589 14.5766 18.0623 14.4322 18.2295C14.2877 18.3967 14.1171 18.524 13.9314 18.6032C13.7457 18.6825 13.5489 18.7119 13.3537 18.6896C11.1876 18.3927 9.10697 17.4589 7.2789 15.9634C5.57812 14.6 4.13616 12.7808 3.05541 10.6352C1.86577 8.31852 1.12544 5.68088 0.894385 2.93599C0.876795 2.69042 0.899929 2.44292 0.962314 2.20925C1.0247 1.97558 1.12497 1.76085 1.25674 1.57874C1.38851 1.39664 1.54889 1.25114 1.72767 1.15151C1.90646 1.05189 2.09973 1.00032 2.29518 1.00009H4.40693C4.74854 0.995844 5.07972 1.14846 5.33874 1.42948C5.59776 1.7105 5.76695 2.10075 5.81476 2.5275C5.90389 3.38006 6.06919 4.21717 6.3075 5.02286C6.40221 5.3407 6.42271 5.68614 6.36656 6.01823C6.31042 6.35032 6.18 6.65515 5.99074 6.8966L5.09676 8.0244C6.09883 10.2476 7.55798 12.0884 9.32026 13.3526L10.2142 12.2248C10.4056 11.986 10.6473 11.8215 10.9105 11.7506C11.1737 11.6798 11.4475 11.7057 11.6995 11.8252C12.3381 12.1258 13.0017 12.3343 13.6775 12.4468C14.0194 12.5076 14.3317 12.7249 14.555 13.0573C14.7782 13.3897 14.8968 13.814 14.8882 14.2495Z" stroke="#FAFAF8" stroke-linecap="round" stroke-linejoin="round"/>
</svg>
