<svg width="35" height="35" viewBox="0 0 35 35" fill="none" xmlns="http://www.w3.org/2000/svg">
<path d="M23.3335 4.375H1.4585V23.3333H23.3335V4.375Z" stroke="url(#paint0_linear)" stroke-width="2" stroke-linecap="round" stroke-linejoin="round"/>
<path d="M23.3335 11.6666H29.1668L33.5418 16.0416V23.3333H23.3335V11.6666Z" stroke="url(#paint1_linear)" stroke-width="2" stroke-linecap="round" stroke-linejoin="round"/>
<path d="M8.02083 30.625C10.0344 30.625 11.6667 28.9927 11.6667 26.9792C11.6667 24.9657 10.0344 23.3334 8.02083 23.3334C6.0073 23.3334 4.375 24.9657 4.375 26.9792C4.375 28.9927 6.0073 30.625 8.02083 30.625Z" stroke="url(#paint2_linear)" stroke-width="2" stroke-linecap="round" stroke-linejoin="round"/>
<path d="M26.9793 30.625C28.9929 30.625 30.6252 28.9927 30.6252 26.9792C30.6252 24.9657 28.9929 23.3334 26.9793 23.3334C24.9658 23.3334 23.3335 24.9657 23.3335 26.9792C23.3335 28.9927 24.9658 30.625 26.9793 30.625Z" stroke="url(#paint3_linear)" stroke-width="2" stroke-linecap="round" stroke-linejoin="round"/>
<defs>
<linearGradient id="paint0_linear" x1="12.396" y1="4.375" x2="12.396" y2="23.3333" gradientUnits="userSpaceOnUse">
<stop stop-color="#FD2949"/>
<stop offset="1" stop-color="#EB0225"/>
</linearGradient>
<linearGradient id="paint1_linear" x1="28.4377" y1="11.6666" x2="28.4377" y2="23.3333" gradientUnits="userSpaceOnUse">
<stop stop-color="#FD2949"/>
<stop offset="1" stop-color="#EB0225"/>
</linearGradient>
<linearGradient id="paint2_linear" x1="8.02083" y1="23.3334" x2="8.02083" y2="30.625" gradientUnits="userSpaceOnUse">
<stop stop-color="#FD2949"/>
<stop offset="1" stop-color="#EB0225"/>
</linearGradient>
<linearGradient id="paint3_linear" x1="26.9793" y1="23.3334" x2="26.9793" y2="30.625" gradientUnits="userSpaceOnUse">
<stop stop-color="#FD2949"/>
<stop offset="1" stop-color="#EB0225"/>
</linearGradient>
</defs>
</svg>
